<?xml version="1.0" encoding="utf-8"?>
<!-- Generator: Adobe Illustrator 28.2.0, SVG Export Plug-In . SVG Version: 6.00 Build 0)  -->
<svg version="1.1" id="Layer_1" xmlns="http://www.w3.org/2000/svg" xmlns:xlink="http://www.w3.org/1999/xlink" x="0px" y="0px"
	 viewBox="0 0 500 500" style="enable-background:new 0 0 500 500;" xml:space="preserve">
<style type="text/css">
	.st0{stroke:#000000;stroke-width:0.3;}
</style>
<g>
	<path class="st0" d="M237.32,8.34c44.03-0.75,77.2,6.48,107.05,19.17c11.09,4.72,27.24,9.58,34.58,18.23l-0.94,1.41
		c-10.89-5.76-21.81-11.53-32.7-17.29c-22.11-9.58-45.8-13.87-73.38-18.7c-15.68-2.75-32.37,0.35-47.68,0.47V9.75L237.32,8.34z"/>
	<path class="st0" d="M211.62,11.15h2.81v1.86h-0.94c-11.53,2.81-23.05,5.63-34.58,8.43l0.9-2.8
		C190.45,16.13,201.03,13.67,211.62,11.15z"/>
	<path class="st0" d="M175.64,20.5c0.94,0.15,1.88,0.3,2.81,0.47c-0.17,0.3-0.3,0.62-0.5,0.92c-12.63,2.14-26.17,8.93-36.89,14.49
		c-3.92,2.03-5.66,4.82-11.69,5.14c0.17-0.47,0.3-0.92,0.47-1.37c9.48-4.71,19-9.38,28.51-14.05
		C164.11,24.24,169.87,22.36,175.64,20.5z"/>
	<path class="st0" d="M379.89,47.14c2.91,0.27,3.75,1.16,5.63,2.35v1.39c-0.33,0.15-0.64,0.32-0.97,0.47
		c-1.54-0.94-3.08-1.86-4.66-2.8V47.14z"/>
	<path class="st0" d="M388.77,52.75c6.06,1.32,30.12,21.31,31.8,26.64c-0.33,0.17-0.64,0.32-0.94,0.47
		c-3.25-1.54-28.78-22.98-31.33-26.17L388.77,52.75z"/>
	<path class="st0" d="M105.98,56.02c1.01,0.96,0.64,0.47,0.94,2.35c-2.78,2.03-5.6,4.04-8.41,6.06c-0.3-0.15-0.6-0.3-0.94-0.47
		v-1.39C100.38,60.39,103.17,58.2,105.98,56.02z"/>
	<path class="st0" d="M154.6,59.28c0.64,0.17,1.24,0.32,1.88,0.47v0.47C154.76,59.8,155.5,60.24,154.6,59.28z"/>
	<path class="st0" d="M164.88,61.16c3.12,0.32,6.23,0.62,9.35,0.94C171.11,61.78,168,61.48,164.88,61.16z"/>
	<path class="st0" d="M179.39,62.1c6.37,0.62,12.77,1.24,19.17,1.86v0.47C192.22,64.63,183.34,64.76,179.39,62.1z"/>
	<path class="st0" d="M204.62,63.96c1.88,0.32,3.72,0.64,5.6,0.94v0.47C208.37,65.23,205.66,65,204.62,63.96z"/>
	<path class="st0" d="M215.38,64.9c1.41,0.17,2.81,0.32,4.19,0.47C218.19,65.21,216.78,65.06,215.38,64.9z"/>
	<path class="st0" d="M127.96,69.57c0.77,0.15,1.57,0.32,2.35,0.47v0.47h-2.82C127.62,70.19,127.83,69.89,127.96,69.57z"/>
	<path class="st0" d="M139.18,70.51c6.83,0.62,13.7,1.26,20.57,1.88v0.47C155.03,72.7,142.1,73.22,139.18,70.51z"/>
	<path class="st0" d="M166.29,72.85c1.41,0.15,2.82,0.3,4.19,0.45C169.1,73.16,167.7,73,166.29,72.85z"/>
	<path class="st0" d="M177.98,73.78c1.07,0.17,2.18,0.32,3.25,0.47C180.16,74.09,179.06,73.94,177.98,73.78z"/>
	<path class="st0" d="M188.27,74.71c0.77,0.15,1.54,0.32,2.31,0.47C189.81,75.03,189.04,74.86,188.27,74.71z"/>
	<path class="st0" d="M194.8,75.18c8.88,0.79,17.76,1.56,26.64,2.35C213.57,77.7,200.47,78.4,194.8,75.18z"/>
	<path class="st0" d="M421.03,80.79c6.87,1.24,23.62,23.99,27.1,30.37c-0.3,0.32-0.64,0.64-0.94,0.94
		C444.89,110.95,421.87,83.39,421.03,80.79z"/>
	<path class="st0" d="M123.3,81.26c0.77,0.15,1.54,0.3,2.31,0.47v0.47h-2.78C122.97,81.88,123.13,81.57,123.3,81.26z"/>
	<path class="st0" d="M137.78,83.12c60.31,4.22,120.59,8.43,180.86,12.63c-0.13,0.47-0.3,0.94-0.44,1.39
		c-7.47-0.45-14.94-0.92-22.45-1.39c-12.87-0.33-28.61,3.77-43.49,0.47c-3.55-0.94-7.14-1.88-10.72-2.82
		c-4.52,0.32-9.05,0.62-13.57,0.94c-15.41-2.65-30.86-5.29-46.27-7.94C167.09,83.86,150.07,88.43,137.78,83.12z"/>
	<path class="st0" d="M70,89.67h1.88v0.47c-1.71,2.83-4.99,7.35-8.41,8.41l-0.47-0.94c0.3-0.3,0.64-0.62,0.94-0.92
		C65.27,93.66,67.72,91.75,70,89.67z"/>
	<path class="st0" d="M150.41,96.23c1.54,0.3,3.12,0.62,4.66,0.92C153.36,97.2,149.3,97.78,150.41,96.23z"/>
	<path class="st0" d="M160.23,97.61c54.68,3.12,109.36,6.23,164.04,9.35v0.47c-36.76,4.17-79.78,0.37-111.71-4.67
		C197.05,100.31,173.43,103.81,160.23,97.61z"/>
	<path class="st0" d="M59.24,101.82c1.91,2.5-5.63,11.78-7.47,14.49h-1.41c-0.13-0.3-0.3-0.62-0.47-0.94
		C53.04,110.87,56.12,106.34,59.24,101.82z"/>
	<path class="st0" d="M99.45,105.1c1.71,0.3,3.45,0.62,5.13,0.94v0.45h-2.31C101.05,106.08,100.22,105.94,99.45,105.1z"/>
	<path class="st0" d="M117.67,106.96c2.21-0.02,3.12,0.07,4.22,0.94C120.49,107.58,119.08,107.28,117.67,106.96z"/>
	<path class="st0" d="M165.82,110.72c4.22,0.45,8.41,0.92,12.63,1.39v0.47C174.23,111.95,170.04,111.34,165.82,110.72z"/>
	<path class="st0" d="M68.59,112.11c12.2-0.28,40.41,0.52,45.8,5.61c-8.98-2.19-50.29-0.74-54.21-4.2
		C64.33,113.75,66.18,114,68.59,112.11z"/>
	<path class="st0" d="M178.92,112.11c6.5-0.15,11.26,0.89,15.88,2.35v0.47C190.85,114.7,181.3,114.44,178.92,112.11z"/>
	<path class="st0" d="M196.21,114.92c11.83,1.54,23.69,3.12,35.52,4.67l-0.94,0.45C226.7,123.63,200.13,118.02,196.21,114.92z"/>
	<path class="st0" d="M449.08,115.84c0.77,0.17,1.54,0.32,2.31,0.47v2.35h-0.44l-0.47-0.94
		C449.98,117.1,449.55,116.46,449.08,115.84z"/>
	<path class="st0" d="M119.08,117.25c1.24,0.15,2.51,0.32,3.72,0.47v0.47C121.59,117.87,120.32,117.57,119.08,117.25z"/>
	<path class="st0" d="M281.28,117.25c11.06-0.12,22.18,0.34,30.82,1.88v0.47C301.82,118.81,291.57,118.04,281.28,117.25z"/>
	<path class="st0" d="M313.98,119.6c6.7,0.45,13.4,0.92,20.1,1.39v0.47C327.18,121.66,318.27,122.23,313.98,119.6z"/>
	<path class="st0" d="M46.17,120.52c0.77,0.17,1.54,0.32,2.31,0.47c-4.06,6.85-8.07,13.72-12.13,20.57h-0.47v-0.94
		C34.71,135.39,43.56,125.04,46.17,120.52z"/>
	<path class="st0" d="M61.59,123.8c12.23-0.24,43.36-0.24,50.02,4.67c-17.32-0.94-34.61-1.88-51.9-2.81c0.17-0.3,0.3-0.62,0.47-0.94
		C60.65,124.42,61.12,124.1,61.59,123.8z"/>
	<path class="st0" d="M174.23,125.19c9.99-0.27,22.78-0.94,28.04,3.75C192.93,127.69,183.58,126.45,174.23,125.19z"/>
	<path class="st0" d="M283.59,127.53c8.95-0.25,27.78,1.31,32.27,5.14c-11.22-1.09-22.45-2.18-33.67-3.29
		c0.17-0.45,0.33-0.92,0.5-1.39C282.99,127.85,283.29,127.69,283.59,127.53z"/>
	<path class="st0" d="M116.74,128.47c2.65,0.3,5.29,0.62,7.94,0.92C121.69,129.53,118.51,129.51,116.74,128.47z"/>
	<path class="st0" d="M203.68,128.94c5.93,0.23,27.84,1.61,31.33,4.2h-0.94C228.98,137.57,207.57,131.87,203.68,128.94z"/>
	<path class="st0" d="M317.27,132.68c3.59,0.47,7.14,0.94,10.72,1.41C324.27,134.2,319.64,134.09,317.27,132.68z"/>
	<path class="st0" d="M330.8,134.09c1.88,0.15,3.75,0.3,5.63,0.47v0.45C334.55,134.71,332.68,134.39,330.8,134.09z"/>
	<path class="st0" d="M339.68,135.01c1.27,0.17,2.51,0.32,3.75,0.47v0.47C342.19,135.63,340.95,135.32,339.68,135.01z"/>
	<path class="st0" d="M63.93,135.48c17.12-0.25,30.76,1.37,44.39,4.21c5.46,0.62,10.92,1.26,16.35,1.86
		c-22.58-0.92-45.17-1.86-67.78-2.8c0.17-0.62,0.33-1.24,0.5-1.86C60.58,137.02,62.32,136.78,63.93,135.48z"/>
	<path class="st0" d="M181.7,136.88c3.12,0.47,6.23,0.94,9.35,1.41v0.45C187.94,138.12,184.82,137.5,181.7,136.88z"/>
	<path class="st0" d="M193.87,139.21c15.11,2.35,30.22,4.67,45.33,7.02v0.47C225.19,146.9,203.48,145.19,193.87,139.21z"/>
	<path class="st0" d="M300.91,140.62c10.09,0.27,25.36,2.31,33.17,6.55c-14.48-1.73-28.98-3.43-43.49-5.14
		C294.62,142.21,298.7,142.21,300.91,140.62z"/>
	<path class="st0" d="M33.07,144.35c1.48,0.97,0.97,0.24,1.41,2.35c-2.35,4.83-4.69,9.65-7,14.49H25.6
		C28.08,155.58,30.56,149.97,33.07,144.35z"/>
	<path class="st0" d="M342.96,148.09h0.94H342.96z"/>
	<path class="st0" d="M345.78,148.56c1.84,0.32,3.72,0.64,5.6,0.94C349.5,149.2,347.62,148.88,345.78,148.56z"/>
	<path class="st0" d="M193.87,149.5h1.88v0.47C195.1,149.82,194.5,149.67,193.87,149.5z"/>
	<path class="st0" d="M198.09,150.44c12.6,2.35,25.23,4.67,37.86,7.02C224.76,157.52,205.36,155.71,198.09,150.44z"/>
	<path class="st0" d="M64.87,151.37c20.2-0.17,37.83,0.12,55.15,3.27c6.37-0.15,12.76-0.32,19.17-0.47
		c15.11,3.12,33.07,3.72,47.64,6.08c12.5,0.62,24.93,1.24,37.42,1.88c17.86,3.32,33.88,5.44,51.87,8.88v0.47
		c-51.87-4.84-103.77-9.67-155.63-14.49C111.34,155.53,68.49,154.62,64.87,151.37z"/>
	<path class="st0" d="M294.82,154.17c11.06,1.41,22.15,2.81,33.2,4.2C318.94,158.58,300.85,157.51,294.82,154.17z"/>
	<path class="st0" d="M330.33,156.52c5.7,0.45,17.62,1.54,21.51,4.67c-7.6-0.94-15.28-1.88-22.92-2.82
		C329.43,157.76,329.9,157.14,330.33,156.52z"/>
	<path class="st0" d="M25.13,162.13h1.41c0,4.06-1.21,7.76-3.28,9.8c-0.47-0.15-0.94-0.3-1.37-0.45L25.13,162.13z"/>
	<path class="st0" d="M66.28,162.13c18.73-0.2,34.11,1.78,49.05,4.21c5.63-0.17,11.22-0.32,16.85-0.47
		c12.4,1.91,27.47,2.66,38.76,4.67c3.75-0.19,7.51-0.32,11.22-0.47c13.91,2.53,30.06,1.61,45.33,4.21
		c26.74,4.54,54.75,6.83,80.88,11.21v0.47c-82.42-7.32-164.85-14.64-247.27-21.96C62.83,163.37,64.53,162.75,66.28,162.13z"/>
	<path class="st0" d="M298.57,164.46c5.09-0.12,8.88,0.49,12.6,1.41v0.47C306.98,165.71,302.76,165.08,298.57,164.46z"/>
	<path class="st0" d="M316.8,165.87c3.59,0.47,7.17,0.94,10.72,1.39v0.47c-4.32-0.47-8.71-0.92-13.07-1.39
		C315.22,166.17,316.03,166.02,316.8,165.87z"/>
	<path class="st0" d="M335.02,168.66c0.94,0.15,1.88,0.32,2.81,0.47C336.9,168.98,335.96,168.81,335.02,168.66z"/>
	<path class="st0" d="M347.19,169.6c2.01,0.3,4.02,0.62,6.06,0.94C350.67,170.64,348.56,170.54,347.19,169.6z"/>
	<path class="st0" d="M78.41,171.93c17.36-0.18,34.88,2.55,50.49,5.14h21.98c11.06,2.51,25.53,3.17,36.89,5.61
		c11.16,2.39,52.17,1.84,57.06,6.55C185.76,183.62,126.72,178,67.65,172.4C71.23,172.25,74.82,172.1,78.41,171.93z"/>
	<path class="st0" d="M281.75,171.93c28.18,2.65,56.39,5.31,84.6,7.96c-18.9,0.27-36.39-0.92-54.25-3.74
		C300.48,174.31,290.13,176.47,281.75,171.93z"/>
	<path class="st0" d="M21.38,173.81h1.88v0.47c-2.51,9.35-4.99,18.7-7.47,28.04c-0.6-0.15-1.24-0.32-1.88-0.47
		C14.04,192.05,17.86,181.24,21.38,173.81z"/>
	<path class="st0" d="M71.87,181.29c22.85-0.23,45.87,1.31,64.03,5.6v0.47C114.56,185.33,93.22,183.3,71.87,181.29z"/>
	<path class="st0" d="M320.98,186.89c0.97,0.17,1.88,0.32,2.81,0.47C322.86,187.21,321.96,187.06,320.98,186.89z"/>
	<path class="st0" d="M327.55,187.36c3.25,0.47,6.53,0.94,9.78,1.41C333.62,188.92,329.7,188.82,327.55,187.36z"/>
	<path class="st0" d="M341.56,188.3c2.04,0.1,2.28,0.12,3.28,0.94C343.73,188.92,342.63,188.62,341.56,188.3z"/>
	<path class="st0" d="M73.28,189.24c17.96-0.2,47.61,2.78,60.31,8.88l-46.77-4.67c-5.29-0.87-15.28,0.74-18.7-2.35
		C69.83,190.48,71.57,189.86,73.28,189.24z"/>
	<path class="st0" d="M346.25,189.24c4.02,0.3,8.11,0.62,12.13,0.94v0.45C354.36,190.17,350.27,189.71,346.25,189.24z"/>
	<path class="st0" d="M255.08,189.71c1.41,0.15,2.82,0.3,4.22,0.47C257.89,190.01,256.49,189.86,255.08,189.71z"/>
	<path class="st0" d="M182.64,190.63c16.05-0.17,26.23,2.31,40.21,3.75v0.45C216.72,194.88,185.25,193.06,182.64,190.63z"/>
	<path class="st0" d="M272.4,191.56l65.4,6.08v0.47c-12.83,1.21-38.7-1.53-51.87-4.67C280.44,192.12,275.92,194.18,272.4,191.56z"/>
	<path class="st0" d="M483.65,193.91h1.88v0.92c0.8,2.01,0.5,2.04-1.41,2.82C483.95,196.42,483.82,195.15,483.65,193.91z"/>
	<path class="st0" d="M226.57,195.3c3.15,0.32,6.26,0.64,9.35,0.94v0.47C232.83,196.24,229.72,195.77,226.57,195.3z"/>
	<path class="st0" d="M341.56,197.65c2.18,0.32,4.36,0.62,6.57,0.94v0.47C345.91,198.58,343.73,198.11,341.56,197.65z"/>
	<path class="st0" d="M348.59,198.11c7.61,0.77,15.25,1.56,22.88,2.33v0.47C364.68,201.15,352.21,201.6,348.59,198.11z"/>
	<path class="st0" d="M135.9,198.58h1.87v0.47C137.14,198.88,136.54,198.73,135.9,198.58z"/>
	<path class="st0" d="M187.8,200.44c17.99-0.23,30.12,3.17,45.33,5.61v0.45C226.03,206.09,188.27,201.6,187.8,200.44z"/>
	<path class="st0" d="M293.41,204.66c5.46,0.45,10.92,0.92,16.38,1.39v0.47L293.41,204.66z"/>
	<path class="st0" d="M74.22,205.12c19.97,1.59,37.19,0.82,53.27,4.67c3.28,0.32,6.53,0.62,9.82,0.94
		c-20.87-0.94-41.75-1.86-62.66-2.8C75.19,205.72,75.02,207.43,74.22,205.12z"/>
	<path class="st0" d="M320.98,206.99c4.22,0.62,8.44,1.24,12.63,1.88C329.23,208.97,322.43,208.37,320.98,206.99z"/>
	<path class="st0" d="M12.5,208.87h1.88v1.39c-0.77,4.84-1.54,9.67-2.31,14.49h-1.88v-3.27L12.5,208.87z"/>
	<path class="st0" d="M338.78,209.34c12.77,1.39,25.53,2.8,38.3,4.2V214C367.39,214.21,343.5,213.46,338.78,209.34z"/>
	<path class="st0" d="M137.78,210.73c0.94,0.15,1.88,0.32,2.82,0.47v0.47C138.72,211.48,138.75,211.52,137.78,210.73z"/>
	<path class="st0" d="M199.46,213.08c12.46-0.07,25.46,0.8,33.2,1.86c0.13,0.32,0.3,0.65,0.47,0.94
		C221.91,214.93,210.68,214,199.46,213.08z"/>
	<path class="st0" d="M236.38,215.4c1.1,0.17,2.18,0.32,3.28,0.47v0.47C237.02,216.39,235.45,217.04,236.38,215.4z"/>
	<path class="st0" d="M240.14,216.34h1.41H240.14z"/>
	<path class="st0" d="M305.1,216.34c17.93-0.33,27.84,2.93,42.52,5.61c7.54,1.36,14.54-1.66,19.2,3.27
		c-14.81-2.03-29.62-4.05-44.43-6.08C317.33,218.22,308.32,219.36,305.1,216.34z"/>
	<path class="st0" d="M78.87,218.67c1.57,0.32,3.12,0.64,4.66,0.94C81.29,219.71,79.91,219.73,78.87,218.67z"/>
	<path class="st0" d="M488.81,218.67h1.41c0.74,12.1,1.47,20.22,1.37,33.66h-1.37v-4.21C489.72,238.3,489.25,228.49,488.81,218.67z"
		/>
	<path class="st0" d="M90.1,219.61c3.75,0.32,7.47,0.64,11.22,0.94C97.57,220.24,93.85,219.93,90.1,219.61z"/>
	<path class="st0" d="M109.73,220.08c4.36,0.62,8.71,1.26,13.1,1.88v0.47c-6.4-0.64-12.8-1.26-19.16-1.88
		C105.68,220.4,107.69,220.24,109.73,220.08z"/>
	<path class="st0" d="M127.96,222.42h1.88v0.47C129.2,222.72,128.6,222.57,127.96,222.42z"/>
	<path class="st0" d="M198.99,222.42c9.32-0.2,20.37-0.72,27.14,2.33C217.08,223.98,208.04,223.19,198.99,222.42z"/>
	<path class="st0" d="M138.25,223.34c3.12,0.32,6.23,0.64,9.35,0.94v0.47C143.98,224.9,140.29,224.75,138.25,223.34z"/>
	<path class="st0" d="M367.29,223.34c1.84,0.94,3.72,1.88,5.6,2.82h-5.16C367.69,224.5,367.86,224.94,367.29,223.34z"/>
	<path class="st0" d="M227.5,224.75c3.28,0.17,6.53,0.32,9.82,0.47v0.47C234.04,225.37,230.79,225.07,227.5,224.75z"/>
	<path class="st0" d="M374.76,226.16c2.01,0.3,4.02,0.62,6.06,0.94v0.47C377.78,227.7,376.17,227.52,374.76,226.16z"/>
	<path class="st0" d="M308.86,229.43c12.9-0.2,21.27,2.8,31.76,4.67v0.47C330.03,232.86,319.44,231.15,308.86,229.43z"/>
	<rect x="9.25" y="231.79" class="st0" width="1.88" height="3.25"/>
	<path class="st0" d="M197.62,231.77c13.4,1.71,26.77,3.42,40.17,5.14v0.45C226.73,237.6,204.05,236.51,197.62,231.77z"/>
	<path class="st0" d="M77.47,232.24c11.09,1.39,22.15,2.8,33.2,4.2c-0.17,0.3-0.3,0.62-0.47,0.92
		C99.85,237.67,82.36,237.92,77.47,232.24z"/>
	<path class="st0" d="M349.03,234.1c2.51-0.03,3.75,0.25,5.16,0.94l0.94,1.88c-3.12-0.47-6.23-0.94-9.35-1.41v-0.47
		C346.85,234.72,347.96,234.42,349.03,234.1z"/>
	<path class="st0" d="M114.39,236.91c2.04,0.45,4.05,0.92,6.1,1.39C117.57,238.47,115.66,238.4,114.39,236.91z"/>
	<path class="st0" d="M242.48,236.91h1.41H242.48z"/>
	<path class="st0" d="M355.6,236.91c2.18,0.3,4.36,0.62,6.53,0.92v0.47h-5.6C356.23,237.83,355.9,237.37,355.6,236.91z"/>
	<path class="st0" d="M123.74,237.83c22.41,1.31,43.72,4.64,64.5,8.9l12.63,1.86c-18.7-2.5-37.39-4.98-56.09-7.47
		C138.98,240.06,127.49,241.35,123.74,237.83z"/>
	<path class="st0" d="M249.95,237.83h1.41H249.95z"/>
	<path class="st0" d="M363.07,237.83c2.18,0.47,4.36,0.94,6.53,1.41v0.47h-2.31C365.41,239.21,364.11,239.19,363.07,237.83z"/>
	<path class="st0" d="M9.25,238.3h0.94c-0.84,1.67,0.24,0.55-1.41,1.41C8.91,239.24,9.08,238.77,9.25,238.3z"/>
	<path class="st0" d="M257.42,238.77c1.07,0.15,2.18,0.32,3.28,0.47v0.47C259.6,239.39,258.5,239.09,257.42,238.77z"/>
	<path class="st0" d="M376.17,239.71c1.41,0.32,2.78,0.62,4.19,0.94C378.95,240.33,377.57,240.03,376.17,239.71z"/>
	<path class="st0" d="M83.1,244.39c24.93-0.35,49.66,4.39,71.5,8.41l22.45,1.41c19.6,4.59,43.76,7.35,63.56,10.76
		c8.07,0.3,16.22,0.62,24.29,0.92c10.52,2.41,20.84,6.13,33.2,7.96v0.47c-72.74-9.82-145.55-19.63-218.29-29.45
		C80.92,244.7,81.99,244.54,83.1,244.39z"/>
	<path class="st0" d="M308.39,246.26c21.75-0.37,38.77,3.17,54.68,7.94v0.47C344.84,251.86,326.61,249.06,308.39,246.26z"/>
	<rect x="8.75" y="248.59" class="st0" width="1.88" height="4.2"/>
	<path class="st0" d="M201.34,248.59c3.45,0.47,6.87,0.94,10.29,1.41C208.21,249.53,204.79,249.06,201.34,248.59z"/>
	<path class="st0" d="M216.31,250.47c23.35,3.27,46.74,6.53,70.09,9.82v0.45c-15.11-2.01-30.22-4.04-45.33-6.06
		C233.43,253.35,220.94,254.99,216.31,250.47z"/>
	<path class="st0" d="M364.48,254.2c0.47,0.15,0.94,0.3,1.41,0.47v0.47h-2.35C363.84,254.82,364.17,254.5,364.48,254.2z"/>
	<path class="st0" d="M9.72,254.67c1.01,0.99,0.9,1.61,0.94,3.74H8.75v-2.33C9.08,255.61,9.39,255.14,9.72,254.67z"/>
	<path class="st0" d="M490.66,255.14c2.01,2.09,1.17,11.48,0.47,14.49h-1.88v-2.35C489.72,263.23,490.22,259.18,490.66,255.14z"/>
	<path class="st0" d="M370.54,255.61c1.07,0.3,2.18,0.62,3.28,0.92C371.75,256.48,371.51,256.58,370.54,255.61z"/>
	<path class="st0" d="M376.17,256.53c1.54,0.17,3.12,0.32,4.66,0.47v0.47C379.28,257.17,377.71,256.85,376.17,256.53z"/>
	<path class="st0" d="M8.78,259.35c0.77,0.15,1.54,0.3,2.31,0.47v6.53H9.22C9.08,264,8.91,261.67,8.78,259.35z"/>
	<path class="st0" d="M290.63,260.74c1.84,0.32,3.72,0.64,5.6,0.94C294.35,261.37,292.47,261.05,290.63,260.74z"/>
	<path class="st0" d="M86.35,261.2c13.97-0.17,25.16,2.21,36.02,4.22c7.94-0.17,15.88-0.32,23.82-0.47
		c20.67,3.74,50.73,4.74,70.13,11.21v0.47L86.35,261.2z"/>
	<path class="st0" d="M304.17,262.14c1.27,0.32,2.51,0.62,3.75,0.94v0.47h-2.35L304.17,262.14z"/>
	<path class="st0" d="M309.79,263.08c2.48,0.47,4.99,0.94,7.47,1.41C314.08,264.57,311.64,264.25,309.79,263.08z"/>
	<path class="st0" d="M320.98,264.02c10.39-0.15,19.1,1.69,27.14,3.27c13.27,2.61,25.43-0.42,36.92,4.2
		c-0.17,0.32-0.33,0.62-0.47,0.94h-0.94c-4.83,1.84-41.85-4.74-49.09-6.08C330.33,265.58,323.63,266.5,320.98,264.02z"/>
	<path class="st0" d="M10.19,269.63h1.41v2.33h-0.5c-0.3-0.15-0.6-0.3-0.91-0.47V269.63z"/>
	<path class="st0" d="M306.51,275.23c12.63,1.88,25.26,3.75,37.86,5.61C335.43,280.99,311.1,279.27,306.51,275.23z"/>
	<path class="st0" d="M10.66,277.1h1.84v2.8c1.17,2.73,1.51,5.95-0.94,7.02v-0.94C11.26,283.02,10.96,280.07,10.66,277.1z"/>
	<path class="st0" d="M225.19,277.57c6.2,0.79,12.46,1.56,18.7,2.33C237.12,280.09,229.65,280,225.19,277.57z"/>
	<path class="st0" d="M488.34,279.43h1.84v2.82c-0.6,2.18-1.24,4.36-1.84,6.53h-0.47C487.61,285.28,487.64,282.7,488.34,279.43z"/>
	<path class="st0" d="M362.6,280.37c8.58,1.39,15.48,4.09,25.7,4.2v1.86c-13.4-1.86-26.77-3.72-40.17-5.59
		C352.95,280.69,357.77,280.54,362.6,280.37z"/>
	<path class="st0" d="M256.49,281.31c7.44-0.03,49.32,3.69,52.37,6.55C293.91,285.03,268.31,288.43,256.49,281.31z"/>
	<path class="st0" d="M12.03,287.86h1.88c3.15,26.29,12.4,52.15,23.39,71.97c4.99,8.43,9.98,16.84,14.94,25.24
		c-0.47,0.15-0.94,0.32-1.41,0.47C37.36,374.44,12.4,313.22,12.03,287.86z"/>
	<path class="st0" d="M313.51,287.86c4.52,0.47,9.05,0.92,13.57,1.39v0.47C322.56,289.1,318.04,288.48,313.51,287.86z"/>
	<path class="st0" d="M333.62,290.19c17.59,2.03,35.22,4.05,52.84,6.08c-0.47,0.62-0.97,1.24-1.41,1.88
		c-0.33,0.15-0.64,0.3-0.97,0.45c-6.33-0.17-11.16-2.24-15.88-3.27c-2.95,0.15-5.9,0.32-8.85,0.47
		C353.75,294.76,339.04,292.72,333.62,290.19z"/>
	<path class="st0" d="M486.47,290.66c0.64,0.32,1.24,0.62,1.84,0.94v1.88c-0.77,0.15-1.54,0.3-2.31,0.47
		C486.13,292.83,486.3,291.73,486.47,290.66z"/>
	<path class="st0" d="M96.16,301.41c27.27,2.65,54.55,5.29,81.82,7.94c26.74,4.44,57.33,4.22,82.26,8.41v0.47
		c-40.68-4.04-81.35-8.09-121.99-12.15C129.87,304.71,100.55,305.37,96.16,301.41z"/>
	<path class="st0" d="M484.12,301.88c0.77,0.15,1.57,0.3,2.35,0.47l-1.88,7.94c-0.6-0.15-1.24-0.32-1.88-0.47L484.12,301.88z"/>
	<path class="st0" d="M481.31,313.56c1.81,0.82,1.37,0.13,1.88,2.35c-1.41,3.74-2.81,7.47-4.19,11.21h-0.5v-0.92
		C477.29,322.75,480.3,317.02,481.31,313.56z"/>
	<path class="st0" d="M100.38,314.5h1.88v0.47C101.62,314.81,101.02,314.65,100.38,314.5z"/>
	<path class="st0" d="M102.73,314.5c8.71,1.09,17.45,2.18,26.17,3.27C124.17,317.83,104.88,316.49,102.73,314.5z"/>
	<path class="st0" d="M263.96,318.7c23.25,2.35,46.44,4.67,69.66,7.02C313.68,325.99,277.96,325.6,263.96,318.7z"/>
	<path class="st0" d="M147.13,319.64h1.41H147.13z"/>
	<path class="st0" d="M149,320.11c11.66,1.24,23.35,2.5,35.05,3.74C172.96,324.04,157.68,324.01,149,320.11z"/>
	<path class="st0" d="M191.99,324.31c21.84-0.32,42.15,2.11,60.78,5.61c6.4,0.94,12.76,1.86,19.16,2.8
		C245.26,329.92,218.63,327.11,191.99,324.31z"/>
	<path class="st0" d="M343.43,325.72c9.45,2.36,23.25,1.84,31.8,3.27v0.47C370.04,329.47,345.75,327.85,343.43,325.72z"/>
	<path class="st0" d="M477.59,328.52H479c-0.47,1.41-0.97,2.8-1.41,4.2c-0.64-0.28-1.24-0.62-1.88-0.94
		C476.35,330.7,476.95,329.61,477.59,328.52z"/>
	<path class="st0" d="M106.92,330.39c24.16-0.28,46.1,2.21,67.78,5.6c19.2,3.02,40.84,0.79,58.43,3.75c16.99,2.85,36.89,0.64,51.4,7
		C225.33,341.3,166.12,335.84,106.92,330.39z"/>
	<path class="st0" d="M391.11,330.86c19.47,2.01,38.97,4.04,58.43,6.08v0.45C436.18,337.61,398.65,335.96,391.11,330.86z"/>
	<path class="st0" d="M283.59,334.13c60.31,6.38,120.62,12.77,180.9,19.17c-21.14,0.15-41.98-2.78-61.22-6.08
		c-19.17-1.88-38.33-3.74-57.5-5.61C327.89,338.7,297.77,340.53,283.59,334.13z"/>
	<path class="st0" d="M473.84,336.46h2.35c-8.31,22.28-19.67,41.43-32.73,58.9c-0.44-0.47-0.94-0.94-1.41-1.41
		c4.99-7.47,9.98-14.98,14.98-22.43C463.58,360.5,468.17,348.54,473.84,336.46z"/>
	<path class="st0" d="M450.01,336.93c2.88-0.15,4.39-0.13,5.6,1.41C453.73,337.87,451.86,337.4,450.01,336.93z"/>
	<path class="st0" d="M107.86,341.13c18.49-0.2,35.15,2.11,51.43,4.67c8.38,0.32,16.82,0.64,25.23,0.94
		c32.4,5.19,71.27,6.16,101.42,11.69h19.16c14.98,1.86,29.92,3.74,44.86,5.61c8.58,0.3,17.15,0.62,25.7,0.92
		c14.98,1.73,29.92,3.43,44.9,5.14c10.02,1.61,20.34,0.5,28.51,4.2v0.47C335.36,363.58,221.57,352.36,107.86,341.13z"/>
	<path class="st0" d="M295.75,347.68c27.24-0.22,53.81,4.25,78.97,7v0.47C348.42,352.68,322.09,350.18,295.75,347.68z"/>
	<path class="st0" d="M109.73,352.83c18.86,1.39,37.69,2.8,56.56,4.2c16.49,1.56,33.04,3.12,49.55,4.67
		c26.17,4.24,56.12,2.8,79.91,8.41v0.47C233.77,364.67,171.72,358.74,109.73,352.83z"/>
	<path class="st0" d="M380.36,355.62c1.87,0.32,3.75,0.64,5.63,0.94v0.47h-0.47C383.81,356.56,382.07,356.09,380.36,355.62z"/>
	<path class="st0" d="M120.02,364.97c11.83-0.13,46.94,1.86,55.62,5.61C157.11,368.72,138.55,366.85,120.02,364.97z"/>
	<path class="st0" d="M176.11,370.58c0.77,0.15,1.54,0.32,2.31,0.47C177.65,370.9,176.88,370.73,176.11,370.58z"/>
	<path class="st0" d="M298.57,370.58c24.29,2.35,48.58,4.67,72.91,7.02v0.45C351.31,377.05,312.24,378.59,298.57,370.58z"/>
	<path class="st0" d="M220.5,374.79c1.71,0.44,0.97-0.02,1.88,0.94C221.74,375.41,221.14,375.11,220.5,374.79z"/>
	<path class="st0" d="M222.85,374.79c35.42,1.79,67.85,4.31,100.01,9.82c13.27,1.56,26.5,3.12,39.74,4.67
		c-34.41-3.43-68.89-6.85-103.3-10.29C251.76,377.77,226.83,378.42,222.85,374.79z"/>
	<path class="st0" d="M371.95,377.6h1.88v0.45C373.19,377.91,372.58,377.75,371.95,377.6z"/>
	<path class="st0" d="M120.49,378.06c18.13-0.22,36.19,1.91,52.34,4.67c6.7,0.79,13.4,1.57,20.1,2.35
		C168.77,382.73,144.65,380.4,120.49,378.06z"/>
	<path class="st0" d="M383.17,378.06c6.27-0.2,19.13-0.54,22.45,2.81C398.11,379.93,390.64,378.99,383.17,378.06z"/>
	<path class="st0" d="M193.87,385.07h1.41H193.87z"/>
	<path class="st0" d="M220.5,387.42c1.07,0.15,2.18,0.3,3.28,0.47C222.68,387.72,221.57,387.57,220.5,387.42z"/>
	<path class="st0" d="M224.25,387.42c21.48,2.36,41.81,1.74,61.22,5.13c5.8,1.02,16.02-0.15,19.63,3.28
		c-20.4-2.03-40.81-4.05-61.21-6.08C238.26,388.86,227.81,390.64,224.25,387.42z"/>
	<path class="st0" d="M125.15,388.81h1.41H125.15z"/>
	<path class="st0" d="M127.49,388.81c10.92,1.26,21.81,2.51,32.7,3.74C154.73,392.65,129.9,391.06,127.49,388.81z"/>
	<path class="st0" d="M363.07,389.28h1.41H363.07z"/>
	<path class="st0" d="M160.7,392.55h1.41H160.7z"/>
	<path class="st0" d="M57.4,393.95h1.84c0.64,0.94,1.27,1.88,1.88,2.8l-1.41,1.41c-0.47-0.3-0.91-0.62-1.41-0.94
		c-0.47-0.77-0.9-1.56-1.37-2.33C57.06,394.57,57.23,394.27,57.4,393.95z"/>
	<path class="st0" d="M178.45,394.42c7.17,0.79,14.31,1.56,21.48,2.33v0.47h-0.47C192.46,396.3,185.45,395.36,178.45,394.42z"/>
	<path class="st0" d="M312.1,396.3c9.82,0.92,19.67,1.86,29.45,2.8C332.48,399.26,319.11,399.55,312.1,396.3z"/>
	<path class="st0" d="M200.4,396.75h1.88v0.47C201.64,397.07,201.03,396.92,200.4,396.75z"/>
	<path class="st0" d="M210.68,397.22h1.41H210.68z"/>
	<path class="st0" d="M213.03,397.22c4.66,0.64,9.35,1.26,14.01,1.88C223.15,399.23,215.14,399.26,213.03,397.22z"/>
	<path class="st0" d="M438.79,397.69h2.31c-1.31,4.77-9.32,14.46-14.01,15.9l-0.47-0.94c0.34-0.3,0.64-0.62,0.94-0.94
		C431.32,407.04,435.04,402.36,438.79,397.69z"/>
	<path class="st0" d="M127.02,400.5c10.55-0.19,41.04,1.27,48.15,4.66C159.12,403.62,143.07,402.06,127.02,400.5z"/>
	<path class="st0" d="M62.06,400.97c4.05,1.46,7.91,6.82,10.75,9.82c-0.17,0.3-0.33,0.62-0.47,0.92c-0.94-0.3-1.88-0.62-2.82-0.92
		C67.05,407.51,64.53,404.24,62.06,400.97z"/>
	<path class="st0" d="M249.01,400.97h1.88v0.45C250.26,401.28,249.65,401.12,249.01,400.97z"/>
	<path class="st0" d="M251.36,400.97c17.89,4.41,41.72-1.32,57.03,6.08C300.45,407.1,254.61,403.94,251.36,400.97z"/>
	<path class="st0" d="M181.23,405.65c2.51,0.3,4.99,0.62,7.51,0.92C186.23,406.27,183.75,405.95,181.23,405.65z"/>
	<path class="st0" d="M199.93,407.51l14.04,1.41L199.93,407.51z"/>
	<path class="st0" d="M314.45,407.51c4.82,0.62,9.65,1.26,14.51,1.88v0.47C324.13,410.05,316.83,409.97,314.45,407.51z"/>
	<path class="st0" d="M223.32,409.38c11.83-0.15,21.74,1.32,31.8,2.8v0.47C244.49,411.56,233.9,410.45,223.32,409.38z"/>
	<path class="st0" d="M334.09,409.38c7.07-0.17,33.37,1.29,36.45,4.21C358.41,412.18,346.25,410.79,334.09,409.38z"/>
	<path class="st0" d="M127.02,410.32c11.22,1.07,22.45,2.18,33.67,3.27C149.47,412.5,138.25,411.39,127.02,410.32z"/>
	<path class="st0" d="M73.75,412.65c5.9,5.61,11.83,11.22,17.76,16.84c16.08,12.88,33.34,27.34,53.74,35.52v0.47
		c-0.13,0.47-0.3,0.94-0.47,1.39c-6.97-1.21-12.5-6.11-17.76-9.33C106.65,445.07,89.6,431.76,73.75,415V412.65z"/>
	<path class="st0" d="M371.01,413.12h1.41H371.01z"/>
	<path class="st0" d="M161.13,413.59c0.97,0.15,1.88,0.32,2.81,0.47C163.01,413.91,162.1,413.74,161.13,413.59z"/>
	<path class="st0" d="M265.37,413.59c4.86,0.47,9.68,0.94,14.51,1.41C275.05,414.53,270.22,414.06,265.37,413.59z"/>
	<path class="st0" d="M289.22,415c6.4,1.49,20.4-0.75,24.76,3.27C307.98,416.84,293.38,418.83,289.22,415z"/>
	<path class="st0" d="M423.38,415.46c0.97,0.94,0.64,0.45,0.9,2.33c-5.9,5.61-11.83,11.22-17.76,16.84
		c-0.3-0.17-0.64-0.32-0.94-0.47v-1.88C411.88,427.73,418.72,421.65,423.38,415.46z"/>
	<path class="st0" d="M201.81,416.85l23.35,1.41c9.98,1.24,19.97,2.51,29.92,3.74c7.04-0.15,14.04-0.3,21.04-0.47l23.35,4.67v0.47
		c-24.29-2.31-48.58-4.67-72.91-7C219.93,418.6,206.13,420.77,201.81,416.85z"/>
	<path class="st0" d="M314.45,417.79c0.77,0.15,1.58,0.32,2.35,0.47C316.03,418.11,315.22,417.94,314.45,417.79z"/>
	<path class="st0" d="M322.39,418.73c14.51,1.39,28.98,2.8,43.49,4.2v0.45C356,423.25,329.63,422.52,322.39,418.73z"/>
	<path class="st0" d="M383.17,424.34c1.71,0.15,3.42,0.3,5.13,0.47v0.45v0.47h-0.47C386.29,425.26,384.71,424.81,383.17,424.34z"/>
	<path class="st0" d="M323.8,428.55c8.74-0.24,31.13-0.07,35.05,3.74C347.15,431.04,335.49,429.79,323.8,428.55z"/>
	<path class="st0" d="M368.19,432.75c2.34,0.3,4.69,0.62,7.03,0.94v0.47h-0.5C372.55,433.69,370.37,433.22,368.19,432.75z"/>
	<path class="st0" d="M380.83,433.69h1.41H380.83z"/>
	<path class="st0" d="M398.11,438.37h0.94c-1.91,6.2-11.33,11.29-16.82,14.02c-0.3-0.17-0.6-0.32-0.94-0.47v-1.41
		C386.89,446.46,392.52,442.4,398.11,438.37z"/>
	<path class="st0" d="M375.7,453.78c0.97,0.96,0.64,0.47,0.94,2.35c-5.5,3.28-11.73,8.64-18.73,9.82v-1.41v-0.47
		C363.84,460.65,369.77,457.21,375.7,453.78z"/>
	<path class="st0" d="M147.13,466.41c2.01,0.92,4.05,1.86,6.06,2.8c-0.3,0.47-0.6,0.94-0.94,1.41h-0.47
		c-1.54-0.62-3.12-1.26-4.66-1.88V466.41z"/>
	<path class="st0" d="M154.6,471.08H156v1.39C155.54,472.02,155.06,471.55,154.6,471.08z"/>
	<path class="st0" d="M159.29,471.55c5.03,1.31,35.08,12.2,35.52,13.55h-1.41C185.32,482.63,161.93,478,159.29,471.55z"/>
	<path class="st0" d="M341.09,471.55c0.64,0.47,1.24,0.92,1.88,1.39v0.47c-10.45,3.2-20.07,9.36-32.23,10.29v-1.88
		C320.62,479.56,333.08,476.58,341.09,471.55z"/>
	<path class="st0" d="M307.92,482.29c0.77,0.15,1.54,0.32,2.31,0.47c-1.51,2.19-7.98,4.64-11.19,3.27
		C301.02,483.23,304.63,483.78,307.92,482.29z"/>
	<path class="st0" d="M195.27,483.23c18.36,1.98,39.97,10.09,62.62,6.55c11.06-1.73,31.83-5.28,40.21-3.75v0.47v0.47h-0.94
		l-17.29,2.82c-28.18,5.04-59.44-1.21-84.6-4.21V483.23z"/>
</g>
</svg>
